<svg id="svg" version="1.1" xmlns="http://www.w3.org/2000/svg" xmlns:xlink="http://www.w3.org/1999/xlink" width="400" height="400" viewBox="0, 0, 400,400"><g id="svgg"><path id="path0" d="M0.000 90.200 C 0.000 147.874,0.139 180.400,0.386 180.400 C 1.213 180.400,1.601 178.692,1.628 174.926 C 1.677 168.252,2.106 164.967,3.065 163.923 C 3.729 163.200,4.016 162.089,4.387 158.800 C 4.647 156.490,5.181 153.871,5.572 152.980 C 5.964 152.089,6.601 149.929,6.989 148.180 C 8.063 143.338,19.257 114.260,22.636 107.534 C 24.612 103.602,37.726 84.033,43.635 76.200 C 54.694 61.539,80.104 38.656,94.596 30.308 C 96.138 29.419,99.208 27.568,101.418 26.193 C 106.577 22.984,109.519 21.510,114.980 19.397 C 117.411 18.457,121.740 16.605,124.600 15.282 C 130.349 12.621,143.233 8.092,148.180 6.991 C 149.929 6.602,152.089 5.969,152.980 5.585 C 153.871 5.200,156.490 4.666,158.800 4.397 C 162.057 4.018,163.206 3.720,163.917 3.068 C 164.915 2.154,168.138 1.670,173.526 1.625 C 176.393 1.601,178.000 1.155,178.000 0.386 C 178.000 0.139,145.903 0.000,89.000 0.000 L 0.000 0.000 0.000 90.200 M219.840 0.561 C 220.151 1.370,221.320 1.585,225.600 1.619 C 231.844 1.669,235.038 2.111,236.083 3.070 C 236.799 3.728,237.921 4.017,241.200 4.387 C 243.510 4.647,246.154 5.192,247.075 5.597 C 247.996 6.002,249.796 6.544,251.075 6.802 C 261.590 8.923,287.440 19.313,297.400 25.421 C 299.820 26.906,303.230 28.933,304.977 29.927 C 306.725 30.921,309.965 33.109,312.177 34.789 C 314.390 36.468,318.720 39.538,321.800 41.611 C 328.651 46.222,348.981 66.021,354.511 73.469 C 356.173 75.706,358.763 78.961,360.266 80.701 C 363.255 84.161,367.261 89.990,370.102 95.015 C 371.102 96.784,372.998 99.942,374.315 102.033 C 380.329 111.579,391.082 138.084,393.208 148.600 C 393.474 149.920,394.012 151.630,394.402 152.400 C 394.792 153.170,395.333 155.240,395.604 157.000 C 395.926 159.095,396.433 160.703,397.072 161.657 C 397.970 162.995,398.065 163.595,398.245 169.057 C 398.482 176.230,398.646 177.455,399.411 177.749 C 399.929 177.948,400.000 167.193,400.000 88.987 L 400.000 0.000 309.813 0.000 C 232.629 0.000,219.656 0.081,219.840 0.561 M186.689 64.968 C 183.076 65.940,179.647 68.884,177.553 72.812 L 176.600 74.600 176.600 92.800 L 176.600 111.000 177.705 113.250 C 180.986 119.930,185.245 121.602,198.973 121.597 C 221.366 121.589,224.227 118.089,223.908 91.088 C 223.691 72.623,221.614 67.417,213.510 65.010 C 210.789 64.202,189.660 64.169,186.689 64.968 M187.737 150.401 C 181.714 151.649,178.426 155.963,175.694 166.200 L 174.200 171.800 174.095 244.200 L 173.991 316.600 175.581 324.309 C 178.850 340.159,178.842 340.154,199.341 340.319 C 221.168 340.494,222.428 339.669,224.199 324.040 C 224.333 322.852,224.839 320.332,225.322 318.440 L 226.200 315.000 226.200 245.600 L 226.200 176.200 224.523 168.275 C 222.183 157.212,220.450 154.057,215.327 151.534 L 212.620 150.200 201.010 150.128 C 194.624 150.089,188.652 150.211,187.737 150.401 M0.000 311.000 L 0.000 400.000 88.987 400.000 C 167.193 400.000,177.948 399.929,177.749 399.411 C 177.455 398.646,176.230 398.482,169.057 398.245 C 163.595 398.065,162.995 397.970,161.657 397.072 C 160.703 396.433,159.095 395.926,157.000 395.604 C 155.240 395.333,153.170 394.792,152.400 394.402 C 151.630 394.012,149.920 393.479,148.600 393.218 C 137.221 390.966,112.669 381.016,102.169 374.401 C 100.003 373.036,96.784 371.100,95.015 370.098 C 90.102 367.315,83.816 362.991,80.583 360.172 C 78.982 358.776,75.811 356.251,73.536 354.562 C 61.198 345.398,38.194 319.087,29.440 304.125 C 28.048 301.746,25.969 298.270,24.820 296.400 C 22.381 292.433,18.600 284.688,17.007 280.400 C 16.394 278.750,15.188 275.724,14.327 273.675 C 12.188 268.585,7.832 255.599,6.981 251.773 C 6.598 250.049,5.964 247.911,5.572 247.020 C 5.181 246.129,4.647 243.510,4.387 241.200 C 4.017 237.921,3.728 236.799,3.070 236.083 C 2.146 235.076,1.669 231.859,1.625 226.329 C 1.602 223.544,1.084 222.000,0.171 222.000 C 0.077 222.000,0.000 262.050,0.000 311.000 M399.226 222.384 C 398.783 222.658,398.585 224.340,398.356 229.805 C 398.081 236.344,397.987 236.981,397.092 238.336 C 396.473 239.271,395.942 240.955,395.619 243.000 C 395.341 244.760,394.795 246.830,394.405 247.600 C 394.015 248.370,393.567 249.810,393.410 250.800 C 391.928 260.137,380.584 288.392,374.611 297.626 C 373.666 299.087,371.763 302.244,370.383 304.641 C 357.148 327.634,328.142 356.894,306.000 369.588 C 304.350 370.534,301.177 372.441,298.949 373.827 C 287.546 380.920,262.635 391.107,251.462 393.246 C 250.108 393.505,248.370 394.031,247.600 394.415 C 246.830 394.798,244.760 395.333,243.000 395.604 C 240.897 395.927,239.298 396.433,238.336 397.078 C 236.973 397.991,236.384 398.080,229.805 398.356 C 224.340 398.585,222.658 398.783,222.384 399.226 C 222.061 399.749,399.345 400.388,399.867 399.867 C 400.388 399.345,399.749 222.061,399.226 222.384 " stroke="none" fill="#fcfcfc" fill-rule="evenodd"></path><path id="path1" d="M177.500 0.833 C 176.930 1.458,176.225 1.605,173.700 1.625 C 168.150 1.669,164.925 2.145,163.917 3.068 C 163.206 3.720,162.057 4.018,158.800 4.397 C 156.490 4.666,153.871 5.200,152.980 5.585 C 152.089 5.969,149.929 6.602,148.180 6.991 C 143.233 8.092,130.349 12.621,124.600 15.282 C 121.740 16.605,117.411 18.457,114.980 19.397 C 109.519 21.510,106.577 22.984,101.418 26.193 C 99.208 27.568,96.138 29.419,94.596 30.308 C 80.104 38.656,54.694 61.539,43.635 76.200 C 37.726 84.033,24.612 103.602,22.636 107.534 C 19.257 114.260,8.063 143.338,6.989 148.180 C 6.601 149.929,5.964 152.089,5.572 152.980 C 5.181 153.871,4.647 156.490,4.387 158.800 C 4.016 162.089,3.729 163.200,3.065 163.923 C 2.098 164.976,1.676 168.261,1.628 175.100 C 1.604 178.644,1.491 179.309,0.800 180.000 C -0.453 181.253,-0.453 221.434,0.800 222.507 C 1.468 223.079,1.604 223.706,1.625 226.296 C 1.669 231.857,2.144 235.074,3.070 236.083 C 3.728 236.799,4.017 237.921,4.387 241.200 C 4.647 243.510,5.181 246.129,5.572 247.020 C 5.964 247.911,6.598 250.049,6.981 251.773 C 7.832 255.599,12.188 268.585,14.327 273.675 C 15.188 275.724,16.394 278.750,17.007 280.400 C 18.600 284.688,22.381 292.433,24.820 296.400 C 25.969 298.270,28.048 301.746,29.440 304.125 C 38.194 319.087,61.198 345.398,73.536 354.562 C 75.811 356.251,78.982 358.776,80.583 360.172 C 83.816 362.991,90.102 367.315,95.015 370.098 C 96.784 371.100,100.003 373.036,102.169 374.401 C 112.669 381.016,137.221 390.966,148.600 393.218 C 149.920 393.479,151.630 394.012,152.400 394.402 C 153.170 394.792,155.240 395.333,157.000 395.604 C 159.093 395.926,160.703 396.433,161.654 397.070 C 163.006 397.976,163.603 398.065,170.188 398.334 C 176.283 398.583,177.323 398.719,177.654 399.311 C 178.242 400.361,221.750 400.376,222.337 399.327 C 222.657 398.754,223.772 398.609,229.793 398.356 C 236.384 398.080,236.972 397.992,238.336 397.078 C 239.298 396.433,240.897 395.927,243.000 395.604 C 244.760 395.333,246.830 394.798,247.600 394.415 C 248.370 394.031,250.108 393.505,251.462 393.246 C 262.635 391.107,287.546 380.920,298.949 373.827 C 301.177 372.441,304.350 370.534,306.000 369.588 C 328.142 356.894,357.148 327.634,370.383 304.641 C 371.763 302.244,373.666 299.087,374.611 297.626 C 380.584 288.392,391.928 260.137,393.410 250.800 C 393.567 249.810,394.015 248.370,394.405 247.600 C 394.795 246.830,395.341 244.760,395.619 243.000 C 395.942 240.955,396.473 239.271,397.092 238.336 C 397.987 236.981,398.081 236.345,398.356 229.793 C 398.609 223.772,398.754 222.657,399.327 222.337 C 400.376 221.750,400.361 178.242,399.311 177.654 C 398.719 177.323,398.583 176.283,398.334 170.188 C 398.065 163.603,397.976 163.006,397.070 161.654 C 396.433 160.703,395.926 159.093,395.604 157.000 C 395.333 155.240,394.792 153.170,394.402 152.400 C 394.012 151.630,393.474 149.920,393.208 148.600 C 391.082 138.084,380.329 111.579,374.315 102.033 C 372.998 99.942,371.102 96.784,370.102 95.015 C 367.261 89.990,363.255 84.161,360.266 80.701 C 358.763 78.961,356.173 75.706,354.511 73.469 C 348.981 66.021,328.651 46.222,321.800 41.611 C 318.720 39.538,314.390 36.468,312.177 34.789 C 309.965 33.109,306.725 30.921,304.977 29.927 C 303.230 28.933,299.820 26.906,297.400 25.421 C 287.440 19.313,261.590 8.923,251.075 6.802 C 249.796 6.544,247.996 6.002,247.075 5.597 C 246.154 5.192,243.510 4.644,241.200 4.378 C 237.803 3.988,236.784 3.715,235.869 2.948 C 235.235 2.416,234.182 1.986,233.469 1.968 C 224.514 1.743,220.314 1.347,219.948 0.693 C 219.316 -0.437,178.536 -0.302,177.500 0.833 M213.510 65.010 C 221.614 67.417,223.691 72.623,223.908 91.088 C 224.227 118.089,221.366 121.589,198.973 121.597 C 185.245 121.602,180.986 119.930,177.705 113.250 L 176.600 111.000 176.600 92.800 L 176.600 74.600 177.553 72.812 C 179.647 68.884,183.076 65.940,186.689 64.968 C 189.660 64.169,210.789 64.202,213.510 65.010 M215.327 151.534 C 220.450 154.057,222.183 157.212,224.523 168.275 L 226.200 176.200 226.200 245.600 L 226.200 315.000 225.322 318.440 C 224.839 320.332,224.333 322.852,224.199 324.040 C 222.428 339.669,221.168 340.494,199.341 340.319 C 178.842 340.154,178.850 340.159,175.581 324.309 L 173.991 316.600 174.095 244.200 L 174.200 171.800 175.694 166.200 C 179.630 151.453,181.902 150.010,201.010 150.128 L 212.620 150.200 215.327 151.534 " stroke="none" fill="#046ca4" fill-rule="evenodd"></path></g></svg>