<svg id="svg" version="1.1" xmlns="http://www.w3.org/2000/svg" xmlns:xlink="http://www.w3.org/1999/xlink" width="400" height="400" viewBox="0, 0, 400,400"><g id="svgg"><path id="path0" d="M0.000 14.000 C 0.000 21.764,0.156 28.000,0.351 28.000 C 1.051 28.000,1.507 26.955,1.774 24.741 C 1.961 23.198,2.312 22.246,2.882 21.741 C 3.341 21.333,4.055 20.242,4.469 19.317 C 4.884 18.391,5.389 17.531,5.591 17.405 C 5.794 17.280,7.626 15.248,9.664 12.889 C 11.701 10.530,15.130 6.860,17.284 4.733 C 19.438 2.607,21.200 0.672,21.200 0.433 C 21.200 0.133,17.943 0.000,10.600 0.000 L 0.000 0.000 0.000 14.000 M376.871 0.675 C 376.946 1.064,377.593 1.496,378.401 1.695 C 379.269 1.910,380.471 2.754,381.569 3.920 C 382.543 4.954,385.943 8.500,389.125 11.800 C 392.308 15.100,395.141 18.344,395.423 19.008 C 395.704 19.673,396.308 20.555,396.765 20.968 C 397.678 21.794,398.394 23.923,398.398 25.820 C 398.400 26.985,398.997 28.000,399.680 28.000 C 399.856 28.000,400.000 21.700,400.000 14.000 L 400.000 0.000 388.371 0.000 C 377.676 0.000,376.752 0.054,376.871 0.675 M46.800 81.184 C 40.253 81.880,37.303 86.973,41.316 90.651 C 43.800 92.927,34.668 92.811,203.250 92.702 L 360.600 92.600 362.339 91.604 C 366.575 89.179,366.227 84.200,361.672 82.065 L 359.400 81.000 204.400 80.954 C 119.150 80.929,48.230 81.032,46.800 81.184 M42.874 145.626 C 36.509 146.884,35.136 153.552,40.711 156.127 L 42.600 157.000 199.000 157.105 C 314.244 157.182,355.978 157.090,357.595 156.757 C 363.856 155.465,364.824 148.646,359.101 146.144 C 357.251 145.335,46.918 144.826,42.874 145.626 M39.204 210.384 C 33.314 212.417,33.427 219.091,39.383 220.907 C 42.373 221.819,354.068 221.605,356.440 220.690 C 362.447 218.371,361.646 211.420,355.212 210.040 C 351.003 209.137,41.841 209.474,39.204 210.384 M0.000 325.371 L 0.000 400.000 29.600 400.000 C 60.682 400.000,60.538 400.008,58.546 398.355 C 57.196 397.235,55.886 394.571,55.144 391.437 C 54.723 389.657,53.672 385.950,52.810 383.200 C 51.948 380.450,50.679 376.040,49.990 373.400 C 49.302 370.760,47.680 365.360,46.386 361.400 C 45.093 357.440,43.656 352.670,43.194 350.800 C 42.731 348.930,41.469 344.520,40.389 341.000 C 39.309 337.480,38.234 333.700,38.001 332.600 C 37.767 331.500,36.870 328.350,36.008 325.600 C 35.145 322.850,33.977 318.800,33.411 316.600 C 32.845 314.400,31.766 310.620,31.013 308.200 C 30.260 305.780,29.173 301.923,28.597 299.629 C 24.631 283.831,21.232 276.853,15.126 271.977 C 13.212 270.448,10.920 268.099,9.490 266.200 C 8.164 264.440,6.587 262.460,5.984 261.800 C 5.381 261.140,4.754 260.150,4.590 259.600 C 4.426 259.050,3.789 258.023,3.173 257.317 C 2.430 256.465,1.969 255.390,1.802 254.117 C 1.663 253.063,1.514 251.932,1.470 251.605 C 1.426 251.277,1.078 250.949,0.695 250.875 C 0.037 250.748,0.000 254.698,0.000 325.371 M398.661 251.500 C 398.554 251.885,398.347 253.100,398.199 254.200 C 398.039 255.401,397.587 256.571,397.069 257.129 C 396.594 257.640,395.845 258.756,395.403 259.608 C 390.883 268.332,377.070 278.826,366.346 281.682 L 361.400 283.000 233.600 283.204 C 134.578 283.363,105.485 283.518,104.400 283.896 C 100.282 285.330,98.248 288.857,95.439 299.436 C 94.451 303.156,92.728 308.900,91.609 312.200 C 90.491 315.500,89.028 320.360,88.359 323.000 C 87.690 325.640,85.999 331.310,84.601 335.600 C 83.202 339.890,81.586 345.290,81.009 347.600 C 80.431 349.910,78.810 355.310,77.405 359.600 C 76.000 363.890,74.379 369.290,73.803 371.600 C 73.227 373.910,72.149 377.690,71.409 380.000 C 70.668 382.310,69.588 386.074,69.008 388.365 C 68.428 390.656,67.693 393.032,67.376 393.646 C 67.059 394.259,66.800 395.123,66.800 395.566 C 66.800 396.009,66.260 396.987,65.600 397.739 C 64.940 398.491,64.400 399.307,64.400 399.553 C 64.400 399.882,108.794 400.000,232.200 400.000 L 400.000 400.000 400.000 325.400 C 400.000 260.915,399.922 250.800,399.427 250.800 C 399.112 250.800,398.767 251.115,398.661 251.500 " stroke="none" fill="#fcfcfc" fill-rule="evenodd"></path><path id="path1" d="M21.200 0.433 C 21.200 0.672,19.438 2.607,17.284 4.733 C 15.130 6.860,11.701 10.530,9.664 12.889 C 7.626 15.248,5.794 17.280,5.591 17.405 C 5.389 17.531,4.884 18.391,4.469 19.317 C 4.055 20.242,3.336 21.337,2.872 21.749 C 2.276 22.279,1.950 23.195,1.759 24.880 C 1.568 26.569,1.273 27.398,0.745 27.727 C -0.472 28.487,-0.417 250.598,0.800 250.916 C 1.399 251.073,1.600 251.462,1.600 252.465 C 1.600 254.467,2.266 256.414,3.347 257.570 C 3.877 258.136,4.440 259.050,4.599 259.600 C 4.758 260.150,5.381 261.140,5.984 261.800 C 6.587 262.460,8.164 264.440,9.490 266.200 C 10.920 268.099,13.212 270.448,15.126 271.977 C 21.232 276.853,24.631 283.831,28.597 299.629 C 29.173 301.923,30.260 305.780,31.013 308.200 C 31.766 310.620,32.845 314.400,33.411 316.600 C 33.977 318.800,35.145 322.850,36.008 325.600 C 36.870 328.350,37.767 331.500,38.001 332.600 C 38.234 333.700,39.309 337.480,40.389 341.000 C 41.469 344.520,42.731 348.930,43.194 350.800 C 43.656 352.670,45.093 357.440,46.386 361.400 C 47.680 365.360,49.302 370.760,49.990 373.400 C 50.679 376.040,51.948 380.450,52.810 383.200 C 53.672 385.950,54.723 389.657,55.144 391.437 C 55.886 394.571,57.196 397.235,58.546 398.355 C 58.906 398.654,59.200 399.146,59.200 399.449 C 59.200 399.860,59.858 400.000,61.800 400.000 C 63.450 400.000,64.400 399.837,64.400 399.553 C 64.400 399.307,64.940 398.491,65.600 397.739 C 66.260 396.987,66.800 396.009,66.800 395.566 C 66.800 395.123,67.059 394.259,67.376 393.646 C 67.693 393.032,68.428 390.656,69.008 388.365 C 69.588 386.074,70.668 382.310,71.409 380.000 C 72.149 377.690,73.227 373.910,73.803 371.600 C 74.379 369.290,76.000 363.890,77.405 359.600 C 78.810 355.310,80.431 349.910,81.009 347.600 C 81.586 345.290,83.202 339.890,84.601 335.600 C 85.999 331.310,87.690 325.640,88.359 323.000 C 89.028 320.360,90.491 315.500,91.609 312.200 C 92.728 308.900,94.451 303.156,95.439 299.436 C 98.248 288.857,100.282 285.330,104.400 283.896 C 105.485 283.518,134.578 283.363,233.600 283.204 L 361.400 283.000 366.346 281.682 C 377.070 278.826,390.883 268.332,395.403 259.608 C 395.845 258.756,396.594 257.640,397.069 257.129 C 397.587 256.571,398.039 255.401,398.199 254.200 C 398.581 251.349,398.779 250.800,399.427 250.800 C 400.492 250.800,400.266 28.358,399.200 27.693 C 398.668 27.361,398.399 26.758,398.398 25.897 C 398.394 23.929,397.691 21.806,396.765 20.968 C 396.308 20.555,395.704 19.673,395.423 19.008 C 395.141 18.344,392.304 15.100,389.118 11.800 C 385.931 8.500,382.552 4.949,381.608 3.908 C 380.418 2.597,379.462 1.935,378.494 1.754 C 377.609 1.588,377.025 1.218,376.902 0.746 C 376.668 -0.148,21.200 -0.460,21.200 0.433 M361.672 82.065 C 366.227 84.200,366.575 89.179,362.339 91.604 L 360.600 92.600 203.250 92.702 C 92.884 92.774,45.428 92.677,44.318 92.378 C 38.812 90.895,37.986 84.712,42.948 82.116 C 45.216 80.929,48.148 80.908,204.400 80.954 L 359.400 81.000 361.672 82.065 M359.101 146.144 C 364.824 148.646,363.856 155.465,357.595 156.757 C 355.978 157.090,314.244 157.182,199.000 157.105 L 42.600 157.000 40.711 156.127 C 35.136 153.552,36.509 146.884,42.874 145.626 C 46.918 144.826,357.251 145.335,359.101 146.144 M355.212 210.040 C 361.646 211.420,362.447 218.371,356.440 220.690 C 354.068 221.605,42.373 221.819,39.383 220.907 C 33.427 219.091,33.314 212.417,39.204 210.384 C 41.841 209.474,351.003 209.137,355.212 210.040 " stroke="none" fill="#046ca4" fill-rule="evenodd"></path></g></svg>