<svg id="svg" version="1.1" xmlns="http://www.w3.org/2000/svg" xmlns:xlink="http://www.w3.org/1999/xlink" width="400" height="400" viewBox="0, 0, 400,400"><g id="svgg"><path id="path0" d="M-0.000 31.829 C -0.000 61.928,0.038 63.651,0.700 63.524 C 1.239 63.420,1.474 62.791,1.720 60.795 C 1.971 58.752,2.281 57.945,3.176 57.000 C 3.800 56.340,4.446 55.356,4.610 54.813 C 4.775 54.270,5.835 52.830,6.967 51.613 C 8.099 50.396,10.073 48.181,11.354 46.691 C 21.702 34.656,29.619 31.499,50.000 31.282 C 65.556 31.116,67.155 31.286,69.111 33.314 C 71.234 35.515,71.306 36.009,71.574 50.200 C 71.853 64.986,71.860 65.023,75.109 68.819 C 79.898 74.414,95.241 79.263,106.221 78.652 C 116.213 78.095,131.108 72.228,135.361 67.174 C 137.801 64.274,137.767 64.484,138.050 50.400 C 138.336 36.156,138.492 35.104,140.604 33.250 C 143.023 31.126,141.299 31.182,201.063 31.295 L 257.000 31.400 258.551 32.364 C 261.596 34.257,261.772 35.155,262.000 50.000 L 262.200 63.000 263.289 65.324 C 267.300 73.885,285.300 80.290,300.000 78.387 C 308.133 77.334,319.979 72.459,324.683 68.230 C 328.402 64.885,328.533 64.278,328.786 49.200 C 329.105 30.128,328.061 31.065,348.749 31.274 L 361.800 31.406 366.645 33.071 C 371.964 34.898,377.001 37.292,380.400 39.606 C 383.525 41.733,394.853 53.238,395.647 55.090 C 396.003 55.921,396.667 56.933,397.123 57.341 C 397.686 57.843,398.040 58.807,398.226 60.341 C 398.493 62.555,398.949 63.600,399.649 63.600 C 399.847 63.600,400.000 49.775,400.000 31.800 L 400.000 0.000 355.000 0.000 C 307.702 0.000,308.631 -0.034,310.634 1.628 C 313.097 3.672,315.885 10.256,316.466 15.400 C 317.283 22.632,316.697 48.189,315.645 51.178 C 312.644 59.714,309.304 61.645,297.097 61.904 C 281.509 62.236,276.977 59.710,274.575 49.355 C 273.460 44.547,273.903 13.824,275.137 10.400 C 276.571 6.418,277.944 3.719,279.151 2.503 C 281.885 -0.250,289.794 -0.000,200.025 -0.000 L 119.275 0.000 119.493 0.834 C 119.613 1.292,119.956 1.762,120.256 1.877 C 122.296 2.660,125.465 10.404,126.002 15.918 C 126.488 20.920,126.491 41.055,126.005 46.043 C 125.305 53.245,122.516 58.108,117.739 60.460 L 115.017 61.800 104.808 61.800 C 94.947 61.800,94.529 61.768,92.519 60.859 C 88.506 59.044,85.167 54.462,84.022 49.200 C 83.177 45.318,83.603 13.136,84.533 10.600 C 85.830 7.063,88.082 2.794,89.054 2.029 C 91.755 -0.096,93.839 0.000,45.000 0.000 L 0.000 0.000 -0.000 31.829 M0.000 122.800 L 0.000 128.800 200.000 128.800 L 400.000 128.800 400.000 122.800 L 400.000 116.800 200.000 116.800 L 0.000 116.800 0.000 122.800 M37.217 148.055 C 30.721 149.132,25.850 153.830,24.416 160.400 C 23.434 164.902,24.027 192.146,25.167 194.912 C 27.000 199.356,30.022 201.798,36.000 203.664 C 40.296 205.004,80.552 205.140,84.556 203.828 C 88.844 202.422,92.337 199.092,94.141 194.689 C 95.189 192.133,95.704 164.620,94.784 160.400 C 93.312 153.653,88.496 149.133,81.600 148.024 C 78.400 147.510,40.347 147.536,37.217 148.055 M130.600 148.005 C 123.773 149.048,119.136 153.201,117.413 159.814 C 116.645 162.762,116.515 188.617,117.250 192.080 C 118.609 198.480,123.362 203.136,129.813 204.389 C 134.831 205.363,172.888 204.753,176.200 203.645 C 182.226 201.630,185.107 199.261,186.887 194.859 C 188.322 191.309,188.310 161.063,186.872 157.501 C 184.907 152.635,179.983 148.890,174.400 148.014 C 171.395 147.542,133.679 147.535,130.600 148.005 M223.505 148.013 C 217.021 149.105,212.422 152.833,210.522 158.537 C 209.509 161.577,209.244 187.963,210.183 192.175 C 211.599 198.522,215.508 202.544,221.872 204.202 C 225.812 205.228,263.066 205.066,267.499 204.004 C 279.199 201.198,281.194 197.149,281.194 176.200 C 281.194 155.328,278.457 149.816,267.200 148.021 C 264.151 147.534,226.387 147.528,223.505 148.013 M318.705 148.013 C 312.183 149.111,308.094 152.399,305.901 158.307 C 303.965 163.523,304.468 191.245,306.582 195.870 C 310.308 204.020,313.176 204.801,339.384 204.797 C 374.701 204.792,376.384 203.491,376.384 176.200 C 376.384 155.228,373.702 149.823,362.400 148.021 C 359.351 147.534,321.587 147.528,318.705 148.013 M79.236 160.649 C 82.833 162.313,82.981 162.880,83.124 175.579 C 83.328 193.644,84.460 192.794,60.173 192.798 C 35.312 192.801,35.847 193.201,36.074 174.794 C 36.271 158.854,35.025 159.626,60.400 159.730 C 76.808 159.798,77.464 159.830,79.236 160.649 M169.978 159.996 C 175.459 161.035,176.189 162.849,176.184 175.400 C 176.176 193.085,176.573 192.801,151.827 192.798 C 127.613 192.794,128.661 193.586,128.876 175.468 C 129.072 158.925,127.936 159.701,152.045 159.640 C 161.013 159.617,168.797 159.772,169.978 159.996 M360.019 160.446 C 363.799 162.166,364.200 163.679,364.200 176.229 L 364.200 185.858 362.999 188.206 C 362.008 190.142,361.449 190.733,359.810 191.577 L 357.822 192.600 340.011 192.600 C 319.621 192.600,319.975 192.655,318.000 189.167 L 317.000 187.400 317.000 176.200 C 317.000 158.727,315.724 159.589,341.400 159.715 C 356.254 159.788,358.794 159.888,360.019 160.446 M35.692 224.612 C 25.677 227.346,23.998 231.329,24.005 252.342 C 24.012 274.301,25.548 277.464,37.583 280.291 C 42.855 281.530,80.823 281.353,84.367 280.073 C 89.951 278.057,93.159 274.605,94.656 269.000 C 95.613 265.419,95.416 238.383,94.410 235.125 C 92.910 230.271,89.919 226.997,85.261 225.114 C 82.362 223.942,39.729 223.510,35.692 224.612 M128.400 224.641 C 123.481 225.957,119.394 229.735,117.732 234.501 C 116.461 238.147,116.632 267.687,117.943 270.937 C 120.146 276.401,125.008 280.017,131.200 280.797 C 140.494 281.969,171.906 281.146,176.897 279.601 C 186.911 276.500,188.095 273.460,187.922 251.306 L 187.800 235.800 186.545 233.151 C 184.325 228.467,181.250 225.932,176.186 224.613 C 172.777 223.725,131.734 223.749,128.400 224.641 M221.292 224.620 C 216.195 225.992,212.515 229.423,210.586 234.600 C 209.649 237.115,209.188 263.594,210.008 267.800 C 211.464 275.269,216.493 279.809,224.390 280.782 C 234.037 281.971,264.616 281.174,269.697 279.601 C 279.668 276.514,281.000 273.308,281.000 252.400 C 281.000 231.805,279.354 227.780,269.719 224.804 C 266.319 223.754,225.091 223.598,221.292 224.620 M316.410 224.641 C 310.669 226.184,306.690 230.549,305.377 236.742 C 304.708 239.901,304.564 263.528,305.190 267.355 C 306.470 275.170,311.609 279.837,320.020 280.822 C 327.385 281.685,360.003 281.110,363.535 280.054 C 374.795 276.691,376.407 273.207,376.392 252.271 C 376.378 232.168,374.206 227.206,364.260 224.558 C 361.147 223.729,319.535 223.802,316.410 224.641 M78.526 236.580 C 82.810 238.107,83.187 239.395,83.161 252.400 C 83.125 269.697,84.089 268.933,62.088 269.125 C 41.890 269.302,39.865 268.963,37.400 264.996 L 36.200 263.065 36.075 252.656 C 35.918 239.642,36.353 238.120,40.662 236.583 C 42.896 235.787,76.295 235.784,78.526 236.580 M265.395 237.037 C 268.622 238.729,269.000 240.235,269.000 251.389 C 269.000 269.294,269.401 269.000,245.000 269.000 C 220.661 269.000,221.876 269.807,221.670 253.505 C 221.500 240.001,222.013 238.109,226.262 236.577 C 229.105 235.552,263.331 235.954,265.395 237.037 M360.595 237.037 C 363.847 238.742,364.200 240.187,364.200 251.789 C 364.200 269.167,364.603 268.858,341.661 269.098 C 316.254 269.365,316.800 269.732,316.800 252.400 C 316.800 240.348,317.487 237.985,321.400 236.592 C 324.318 235.554,358.507 235.941,360.595 237.037 M37.217 300.455 C 30.691 301.537,25.838 306.216,24.413 312.800 C 23.434 317.319,24.030 344.554,25.167 347.312 C 27.000 351.756,30.022 354.198,36.000 356.064 C 40.615 357.504,81.196 357.535,84.959 356.101 C 89.192 354.489,92.248 351.502,94.065 347.200 C 95.180 344.564,95.753 317.259,94.787 312.800 C 93.324 306.040,88.526 301.537,81.600 300.424 C 78.400 299.910,40.347 299.936,37.217 300.455 M130.017 300.455 C 123.677 301.506,119.087 305.789,117.413 312.214 C 116.645 315.162,116.515 341.017,117.250 344.480 C 118.635 351.001,123.423 355.581,130.158 356.826 C 135.172 357.753,172.998 357.109,176.200 356.042 C 182.218 354.036,185.106 351.663,186.887 347.259 C 188.322 343.709,188.310 313.463,186.872 309.901 C 184.907 305.035,179.983 301.290,174.400 300.414 C 171.184 299.909,133.097 299.945,130.017 300.455 M223.200 300.407 C 216.344 301.599,211.769 305.852,210.204 312.487 C 209.339 316.156,209.349 341.084,210.217 344.765 C 211.760 351.311,216.276 355.591,222.942 356.823 C 227.962 357.751,265.811 357.112,269.000 356.045 C 279.695 352.468,281.194 349.095,281.194 328.600 C 281.194 308.017,278.770 302.848,268.052 300.576 C 265.107 299.952,226.653 299.807,223.200 300.407 M318.400 300.414 C 312.270 301.503,308.178 304.791,306.054 310.337 C 304.864 313.443,304.239 337.173,305.186 343.293 C 306.319 350.613,311.006 355.524,318.099 356.820 C 323.190 357.750,361.002 357.115,364.200 356.045 C 374.935 352.455,376.384 349.190,376.384 328.600 C 376.384 307.855,374.045 302.864,363.252 300.576 C 360.288 299.948,321.808 299.809,318.400 300.414 M79.236 313.049 C 82.846 314.719,82.982 315.250,83.116 328.200 C 83.302 346.219,84.594 345.333,58.400 345.127 C 35.273 344.946,35.840 345.400,36.071 327.200 C 36.273 311.253,35.025 312.026,60.400 312.130 C 76.808 312.198,77.464 312.230,79.236 313.049 M169.978 312.396 C 175.459 313.435,176.189 315.249,176.184 327.800 C 176.176 345.423,176.488 345.201,151.680 345.198 C 127.733 345.194,129.000 346.110,129.000 328.800 C 129.000 311.185,127.740 312.102,152.045 312.040 C 161.013 312.017,168.797 312.172,169.978 312.396 M262.810 312.402 C 268.240 313.432,269.000 315.371,269.000 328.200 C 269.000 345.384,269.265 345.200,244.557 345.200 C 220.558 345.200,221.420 345.870,221.666 327.400 C 221.880 311.406,220.832 312.101,244.845 312.040 C 253.974 312.017,261.589 312.170,262.810 312.402 M0.000 383.586 L 0.000 400.000 16.414 400.000 C 32.704 400.000,32.825 399.994,32.400 399.200 C 32.109 398.656,31.561 398.399,30.686 398.398 C 28.728 398.394,26.605 397.689,25.768 396.765 C 25.355 396.308,24.473 395.699,23.808 395.413 C 23.144 395.126,21.880 394.217,21.000 393.393 C 20.120 392.569,18.050 390.862,16.400 389.600 C 12.225 386.405,7.072 380.635,4.951 376.780 C 4.483 375.930,3.637 374.684,3.069 374.010 C 2.326 373.126,1.962 372.112,1.766 370.377 C 1.567 368.623,1.291 367.863,0.747 367.571 C 0.023 367.184,0.000 367.686,0.000 383.586 M399.088 367.769 C 398.775 368.082,398.405 369.295,398.267 370.464 C 398.121 371.697,397.671 373.011,397.196 373.594 C 396.745 374.147,396.067 375.238,395.688 376.018 C 395.045 377.343,392.231 380.696,387.322 385.987 C 386.180 387.218,383.611 389.390,381.615 390.813 C 379.619 392.236,376.734 394.417,375.205 395.659 C 372.669 397.720,372.205 397.942,369.912 398.180 C 366.147 398.573,365.289 398.792,365.046 399.424 C 364.856 399.920,367.276 400.000,382.413 400.000 L 400.000 400.000 400.000 383.600 C 400.000 374.580,399.923 367.200,399.829 367.200 C 399.734 367.200,399.401 367.456,399.088 367.769 " stroke="none" fill="#fcfcfc" fill-rule="evenodd"></path><path id="path1" d="M90.000 0.642 C 90.000 0.996,89.575 1.620,89.054 2.029 C 88.082 2.794,85.830 7.063,84.533 10.600 C 83.603 13.136,83.177 45.318,84.022 49.200 C 85.167 54.462,88.506 59.044,92.519 60.859 C 94.529 61.768,94.947 61.800,104.808 61.800 L 115.017 61.800 117.739 60.460 C 122.516 58.108,125.305 53.245,126.005 46.043 C 126.491 41.055,126.488 20.920,126.002 15.918 C 125.480 10.553,122.014 2.000,120.362 2.000 C 120.152 2.000,119.809 1.550,119.600 1.000 L 119.220 0.000 104.610 0.000 C 91.461 0.000,90.000 0.064,90.000 0.642 M280.511 0.700 C 280.365 1.085,279.753 1.896,279.151 2.503 C 277.944 3.719,276.571 6.418,275.137 10.400 C 273.903 13.824,273.460 44.547,274.575 49.355 C 276.977 59.710,281.509 62.236,297.097 61.904 C 307.707 61.679,310.054 60.815,313.286 55.945 C 316.405 51.247,316.532 50.424,316.712 33.800 C 316.933 13.454,316.172 8.611,311.922 3.309 C 311.080 2.259,310.283 1.085,310.149 0.700 C 309.924 0.051,308.854 0.000,295.341 0.000 C 281.836 0.000,280.756 0.051,280.511 0.700 M34.177 32.176 C 25.249 34.484,17.719 39.283,11.296 46.757 C 10.047 48.211,8.099 50.396,6.967 51.613 C 5.835 52.830,4.775 54.270,4.610 54.813 C 4.446 55.356,3.793 56.347,3.158 57.016 C 2.232 57.994,1.953 58.731,1.740 60.770 C 1.531 62.766,1.317 63.349,0.737 63.500 C 0.030 63.685,0.000 64.781,0.000 90.247 L 0.000 116.800 200.000 116.800 L 400.000 116.800 400.000 90.296 C 400.000 64.880,399.969 63.773,399.255 63.327 C 398.727 62.998,398.432 62.169,398.241 60.480 C 398.051 58.803,397.723 57.876,397.133 57.349 C 396.671 56.937,396.003 55.921,395.647 55.090 C 394.853 53.238,383.525 41.733,380.400 39.606 C 377.001 37.292,371.964 34.898,366.645 33.071 L 361.800 31.406 348.749 31.274 C 328.061 31.065,329.105 30.128,328.786 49.200 C 328.485 67.145,327.411 69.025,314.541 74.132 C 300.493 79.706,291.920 80.190,279.400 76.118 C 269.428 72.875,265.637 70.335,263.289 65.324 L 262.200 63.000 262.000 50.000 C 261.772 35.155,261.596 34.257,258.551 32.364 L 257.000 31.400 201.063 31.295 C 141.299 31.182,143.023 31.126,140.604 33.250 C 138.492 35.104,138.336 36.156,138.050 50.400 C 137.767 64.484,137.801 64.274,135.361 67.174 C 131.108 72.228,116.213 78.095,106.221 78.652 C 95.241 79.263,79.898 74.414,75.109 68.819 C 71.858 65.021,71.852 64.989,71.583 50.200 C 71.220 30.239,72.245 31.195,51.200 31.222 C 38.476 31.238,37.617 31.287,34.177 32.176 M-0.000 247.986 C -0.000 363.927,0.020 367.183,0.747 367.571 C 1.291 367.863,1.567 368.623,1.766 370.377 C 1.962 372.112,2.326 373.126,3.069 374.010 C 3.637 374.684,4.483 375.930,4.951 376.780 C 7.072 380.635,12.225 386.405,16.400 389.600 C 18.050 390.862,20.120 392.569,21.000 393.393 C 21.880 394.217,23.144 395.126,23.808 395.413 C 24.473 395.699,25.355 396.308,25.768 396.765 C 26.605 397.689,28.728 398.394,30.686 398.398 C 31.561 398.399,32.109 398.656,32.400 399.200 C 32.998 400.317,364.488 400.486,365.113 399.370 C 365.422 398.817,369.056 398.065,371.664 398.013 C 372.029 398.006,373.600 396.965,375.156 395.700 C 376.712 394.435,379.619 392.236,381.615 390.813 C 383.611 389.390,386.180 387.218,387.322 385.987 C 392.231 380.696,395.045 377.343,395.688 376.018 C 396.067 375.238,396.737 374.150,397.177 373.600 C 397.617 373.050,398.139 371.540,398.337 370.245 C 398.561 368.774,398.941 367.753,399.348 367.525 C 399.948 367.189,400.000 357.721,400.000 247.980 L 400.000 128.800 200.000 128.800 L 0.000 128.800 -0.000 247.986 M81.600 148.024 C 88.496 149.133,93.312 153.653,94.784 160.400 C 95.704 164.620,95.189 192.133,94.141 194.689 C 92.337 199.092,88.844 202.422,84.556 203.828 C 80.552 205.140,40.296 205.004,36.000 203.664 C 30.022 201.798,27.000 199.356,25.167 194.912 C 24.027 192.146,23.434 164.902,24.416 160.400 C 25.850 153.830,30.721 149.132,37.217 148.055 C 40.347 147.536,78.400 147.510,81.600 148.024 M174.400 148.014 C 179.983 148.890,184.907 152.635,186.872 157.501 C 188.310 161.063,188.322 191.309,186.887 194.859 C 185.107 199.261,182.226 201.630,176.200 203.645 C 172.888 204.753,134.831 205.363,129.813 204.389 C 123.362 203.136,118.609 198.480,117.250 192.080 C 116.515 188.617,116.645 162.762,117.413 159.814 C 119.136 153.201,123.773 149.048,130.600 148.005 C 133.679 147.535,171.395 147.542,174.400 148.014 M267.200 148.021 C 278.457 149.816,281.194 155.328,281.194 176.200 C 281.194 197.149,279.199 201.198,267.499 204.004 C 263.066 205.066,225.812 205.228,221.872 204.202 C 215.508 202.544,211.599 198.522,210.183 192.175 C 209.244 187.963,209.509 161.577,210.522 158.537 C 212.422 152.833,217.021 149.105,223.505 148.013 C 226.387 147.528,264.151 147.534,267.200 148.021 M362.400 148.021 C 373.702 149.823,376.384 155.228,376.384 176.200 C 376.384 197.270,374.457 201.185,362.699 204.004 C 358.217 205.078,321.009 205.227,317.014 204.187 C 310.296 202.437,306.273 197.915,305.186 190.893 C 304.339 185.416,304.873 161.078,305.901 158.307 C 308.094 152.399,312.183 149.111,318.705 148.013 C 321.587 147.528,359.351 147.534,362.400 148.021 M41.887 160.027 C 36.577 161.312,36.230 162.195,36.074 174.794 C 35.847 193.201,35.312 192.801,60.173 192.798 C 84.460 192.794,83.328 193.644,83.124 175.579 C 82.934 158.786,84.430 159.829,60.400 159.730 C 51.050 159.692,42.719 159.825,41.887 160.027 M134.636 160.047 C 129.459 161.262,129.031 162.408,128.876 175.468 C 128.661 193.586,127.613 192.794,151.827 192.798 C 176.573 192.801,176.176 193.085,176.184 175.400 C 176.189 162.849,175.459 161.035,169.978 159.996 C 167.364 159.500,136.778 159.545,134.636 160.047 M322.288 160.156 C 317.391 161.504,317.000 162.689,317.000 176.200 L 317.000 187.400 318.000 189.167 C 319.975 192.655,319.621 192.600,340.011 192.600 L 357.822 192.600 359.810 191.577 C 361.449 190.733,362.008 190.142,362.999 188.206 L 364.200 185.858 364.200 176.229 C 364.200 158.932,365.445 159.834,341.400 159.715 C 328.207 159.650,323.755 159.753,322.288 160.156 M85.261 225.114 C 89.919 226.997,92.910 230.271,94.410 235.125 C 95.416 238.383,95.613 265.419,94.656 269.000 C 93.159 274.605,89.951 278.057,84.367 280.073 C 80.823 281.353,42.855 281.530,37.583 280.291 C 25.548 277.464,24.012 274.301,24.005 252.342 C 23.998 231.329,25.677 227.346,35.692 224.612 C 39.729 223.510,82.362 223.942,85.261 225.114 M176.186 224.613 C 181.250 225.932,184.325 228.467,186.545 233.151 L 187.800 235.800 187.922 251.306 C 188.147 280.058,186.719 281.214,151.010 281.188 C 125.368 281.169,121.598 280.000,117.943 270.937 C 116.632 267.687,116.461 238.147,117.732 234.501 C 119.394 229.735,123.481 225.957,128.400 224.641 C 131.734 223.749,172.777 223.725,176.186 224.613 M269.719 224.804 C 279.354 227.780,281.000 231.805,281.000 252.400 C 281.000 273.308,279.668 276.514,269.697 279.601 C 264.616 281.174,234.037 281.971,224.390 280.782 C 216.493 279.809,211.464 275.269,210.008 267.800 C 209.188 263.594,209.649 237.115,210.586 234.600 C 212.515 229.423,216.195 225.992,221.292 224.620 C 225.091 223.598,266.319 223.754,269.719 224.804 M364.260 224.558 C 374.206 227.206,376.378 232.168,376.392 252.271 C 376.407 273.207,374.795 276.691,363.535 280.054 C 360.003 281.110,327.385 281.685,320.020 280.822 C 311.609 279.837,306.470 275.170,305.190 267.355 C 304.564 263.528,304.708 239.901,305.377 236.742 C 306.690 230.549,310.669 226.184,316.410 224.641 C 319.535 223.802,361.147 223.729,364.260 224.558 M40.662 236.583 C 36.353 238.120,35.918 239.642,36.075 252.656 L 36.200 263.065 37.400 264.996 C 39.865 268.963,41.890 269.302,62.088 269.125 C 84.089 268.933,83.125 269.697,83.161 252.400 C 83.187 239.395,82.810 238.107,78.526 236.580 C 76.295 235.784,42.896 235.787,40.662 236.583 M226.262 236.577 C 222.013 238.109,221.500 240.001,221.670 253.505 C 221.876 269.807,220.661 269.000,245.000 269.000 C 269.401 269.000,269.000 269.294,269.000 251.389 C 269.000 235.348,270.343 236.232,245.800 236.111 C 231.292 236.040,227.502 236.130,226.262 236.577 M321.400 236.592 C 317.487 237.985,316.800 240.348,316.800 252.400 C 316.800 269.732,316.254 269.365,341.661 269.098 C 364.603 268.858,364.200 269.167,364.200 251.789 C 364.200 235.280,365.610 236.233,341.000 236.111 C 326.275 236.039,322.709 236.127,321.400 236.592 M81.600 300.424 C 88.526 301.537,93.324 306.040,94.787 312.800 C 95.753 317.259,95.180 344.564,94.065 347.200 C 92.248 351.502,89.192 354.489,84.959 356.101 C 81.196 357.535,40.615 357.504,36.000 356.064 C 30.022 354.198,27.000 351.756,25.167 347.312 C 24.030 344.554,23.434 317.319,24.413 312.800 C 25.838 306.216,30.691 301.537,37.217 300.455 C 40.347 299.936,78.400 299.910,81.600 300.424 M174.400 300.414 C 179.983 301.290,184.907 305.035,186.872 309.901 C 188.310 313.463,188.322 343.709,186.887 347.259 C 185.106 351.663,182.218 354.036,176.200 356.042 C 172.998 357.109,135.172 357.753,130.158 356.826 C 123.423 355.581,118.635 351.001,117.250 344.480 C 116.515 341.017,116.645 315.162,117.413 312.214 C 119.087 305.789,123.677 301.506,130.017 300.455 C 133.097 299.945,171.184 299.909,174.400 300.414 M268.052 300.576 C 278.770 302.848,281.194 308.017,281.194 328.600 C 281.194 349.095,279.695 352.468,269.000 356.045 C 265.811 357.112,227.962 357.751,222.942 356.823 C 216.276 355.591,211.760 351.311,210.217 344.765 C 209.349 341.084,209.339 316.156,210.204 312.487 C 211.769 305.852,216.344 301.599,223.200 300.407 C 226.653 299.807,265.107 299.952,268.052 300.576 M363.252 300.576 C 374.045 302.864,376.384 307.855,376.384 328.600 C 376.384 349.190,374.935 352.455,364.200 356.045 C 361.002 357.115,323.190 357.750,318.099 356.820 C 311.006 355.524,306.319 350.613,305.186 343.293 C 304.239 337.173,304.864 313.443,306.054 310.337 C 308.178 304.791,312.270 301.503,318.400 300.414 C 321.808 299.809,360.288 299.948,363.252 300.576 M41.887 312.427 C 36.578 313.712,36.231 314.594,36.071 327.200 C 35.840 345.400,35.273 344.946,58.400 345.127 C 84.594 345.333,83.302 346.219,83.116 328.200 C 82.940 311.149,84.466 312.229,60.400 312.130 C 51.050 312.092,42.719 312.225,41.887 312.427 M134.636 312.447 C 129.347 313.688,129.000 314.695,129.000 328.800 C 129.000 346.110,127.733 345.194,151.680 345.198 C 176.488 345.201,176.176 345.423,176.184 327.800 C 176.189 315.249,175.459 313.435,169.978 312.396 C 167.364 311.900,136.778 311.945,134.636 312.447 M227.457 312.443 C 222.309 313.652,221.834 314.879,221.666 327.400 C 221.420 345.870,220.558 345.200,244.557 345.200 C 269.265 345.200,269.000 345.384,269.000 328.200 C 269.000 315.371,268.240 313.432,262.810 312.402 C 260.179 311.903,229.605 311.938,227.457 312.443 " stroke="none" fill="#046ca4" fill-rule="evenodd"></path></g></svg>