<svg id="svg" version="1.1" xmlns="http://www.w3.org/2000/svg" xmlns:xlink="http://www.w3.org/1999/xlink" width="400" height="400" viewBox="0, 0, 400,400"><g id="svgg"><path id="path0" d="M-0.000 134.229 C -0.000 260.965,0.038 268.451,0.688 268.326 C 1.096 268.248,1.554 267.560,1.812 266.640 C 2.418 264.481,10.419 258.433,17.666 254.656 C 22.355 252.211,34.369 248.513,39.809 247.840 C 42.444 247.513,46.263 246.876,48.296 246.423 C 56.472 244.602,61.281 245.562,63.200 249.400 L 64.200 251.400 64.400 289.200 L 64.600 327.000 65.527 328.882 C 68.015 333.934,76.033 337.359,87.000 338.057 C 90.300 338.266,95.117 338.879,97.704 339.419 L 102.407 340.400 197.904 340.397 C 290.439 340.394,293.499 340.371,296.600 339.632 C 300.935 338.599,302.346 338.430,310.000 338.022 C 322.264 337.370,330.479 333.767,332.658 328.086 C 333.331 326.330,333.395 323.602,333.590 288.400 C 333.810 248.756,333.768 249.608,335.618 247.656 C 337.722 245.437,343.314 244.915,349.400 246.371 C 351.160 246.792,354.760 247.419,357.400 247.765 C 374.221 249.967,388.121 255.811,397.342 264.558 C 398.410 265.571,399.445 266.400,399.642 266.400 C 399.852 266.400,400.000 211.327,400.000 133.200 L 400.000 0.000 339.400 0.000 C 297.694 0.000,278.800 0.130,278.800 0.416 C 278.800 0.645,279.205 1.380,279.700 2.050 L 280.600 3.267 280.805 68.733 C 281.026 138.931,280.923 135.825,283.092 138.104 C 285.169 140.287,283.645 140.187,317.800 140.400 L 349.800 140.600 352.116 141.685 C 356.039 143.523,356.856 146.641,354.503 150.800 C 352.960 153.529,336.544 169.728,331.800 173.204 C 329.037 175.228,323.471 180.423,313.800 190.002 C 304.036 199.674,298.590 204.753,295.800 206.790 C 292.965 208.859,287.430 214.044,276.800 224.588 C 266.327 234.976,260.533 240.409,257.600 242.591 C 254.663 244.776,248.889 250.192,238.400 260.600 C 227.932 270.988,222.198 276.367,219.423 278.403 C 217.235 280.008,213.408 283.258,210.918 285.627 C 202.397 293.732,200.439 293.728,191.636 285.595 C 188.866 283.036,185.160 279.889,183.400 278.601 C 181.640 277.314,175.070 271.199,168.800 265.012 C 161.608 257.916,155.850 252.603,153.200 250.619 C 150.629 248.694,145.044 243.569,138.800 237.404 C 132.369 231.056,127.122 226.249,124.600 224.397 C 121.984 222.477,116.587 217.495,109.000 209.999 C 101.339 202.430,96.042 197.544,93.400 195.611 C 90.759 193.678,85.526 188.852,78.000 181.408 C 70.142 173.636,65.171 169.066,62.000 166.698 C 56.720 162.756,46.538 152.678,45.248 150.116 C 43.856 147.352,44.078 145.027,45.909 143.197 C 48.510 140.596,47.415 140.679,82.400 140.428 L 114.200 140.200 115.712 139.260 C 116.544 138.743,117.624 137.573,118.112 136.660 L 119.000 135.000 119.200 69.190 L 119.400 3.380 120.300 2.236 C 122.189 -0.165,126.599 0.000,60.600 0.000 L 0.000 0.000 -0.000 134.229 M0.000 388.371 L 0.000 400.000 19.987 400.000 C 37.212 400.000,39.944 399.920,39.754 399.424 C 39.507 398.780,38.622 398.565,34.692 398.192 C 32.749 398.007,31.675 397.682,30.892 397.039 C 30.291 396.547,28.720 395.913,27.400 395.630 C 26.080 395.348,24.460 394.798,23.800 394.408 C 23.140 394.018,21.610 393.385,20.400 393.001 C 17.520 392.089,13.088 389.642,10.673 387.631 C 5.035 382.938,2.052 379.882,1.714 378.456 C 1.509 377.586,1.097 376.953,0.686 376.873 C 0.051 376.751,0.000 377.603,0.000 388.371 M398.671 379.500 C 398.574 379.665,398.373 380.365,398.225 381.056 C 397.586 384.037,387.571 390.430,379.297 393.139 C 377.921 393.590,376.398 394.236,375.914 394.576 C 375.429 394.915,373.972 395.401,372.676 395.656 C 371.379 395.911,369.838 396.524,369.251 397.018 C 368.471 397.675,367.432 397.988,365.392 398.183 C 361.372 398.566,360.494 398.777,360.246 399.424 C 360.056 399.920,362.788 400.000,380.013 400.000 L 400.000 400.000 400.000 389.600 C 400.000 379.418,399.766 377.639,398.671 379.500 " stroke="none" fill="#fcfcfc" fill-rule="evenodd"></path><path id="path1" d="M121.200 0.546 C 121.200 0.846,120.795 1.607,120.300 2.236 L 119.400 3.380 119.200 69.190 L 119.000 135.000 118.112 136.660 C 117.624 137.573,116.544 138.743,115.712 139.260 L 114.200 140.200 82.400 140.428 C 47.415 140.679,48.510 140.596,45.909 143.197 C 44.078 145.027,43.856 147.352,45.248 150.116 C 46.538 152.678,56.720 162.756,62.000 166.698 C 65.171 169.066,70.142 173.636,78.000 181.408 C 85.526 188.852,90.759 193.678,93.400 195.611 C 96.042 197.544,101.339 202.430,109.000 209.999 C 116.587 217.495,121.984 222.477,124.600 224.397 C 127.122 226.249,132.369 231.056,138.800 237.404 C 145.044 243.569,150.629 248.694,153.200 250.619 C 155.850 252.603,161.608 257.916,168.800 265.012 C 175.070 271.199,181.640 277.314,183.400 278.601 C 185.160 279.889,188.866 283.036,191.636 285.595 C 200.439 293.728,202.397 293.732,210.918 285.627 C 213.408 283.258,217.235 280.008,219.423 278.403 C 222.198 276.367,227.932 270.988,238.400 260.600 C 248.889 250.192,254.663 244.776,257.600 242.591 C 260.533 240.409,266.327 234.976,276.800 224.588 C 287.430 214.044,292.965 208.859,295.800 206.790 C 298.590 204.753,304.036 199.674,313.800 190.002 C 323.471 180.423,329.037 175.228,331.800 173.204 C 336.544 169.728,352.960 153.529,354.503 150.800 C 356.856 146.641,356.039 143.523,352.116 141.685 L 349.800 140.600 317.800 140.400 C 283.645 140.187,285.169 140.287,283.092 138.104 C 280.923 135.825,281.026 138.931,280.805 68.733 L 280.600 3.267 279.700 2.050 C 279.205 1.380,278.800 0.645,278.800 0.416 C 278.800 0.129,254.311 0.000,200.000 0.000 C 133.682 0.000,121.200 0.086,121.200 0.546 M48.200 246.424 C 46.440 246.837,42.750 247.457,40.000 247.801 C 33.223 248.650,20.916 252.680,15.718 255.752 C 7.164 260.807,2.180 264.717,1.815 266.658 C 1.640 267.596,1.281 268.158,0.774 268.291 C -0.420 268.603,-0.447 376.590,0.746 376.902 C 1.216 377.025,1.587 377.607,1.751 378.480 C 1.952 379.551,2.771 380.560,5.378 382.945 C 12.159 389.151,15.674 391.504,20.400 393.001 C 21.610 393.385,23.140 394.018,23.800 394.408 C 24.460 394.798,26.080 395.348,27.400 395.630 C 28.720 395.913,30.291 396.547,30.892 397.039 C 31.675 397.682,32.749 398.007,34.692 398.192 C 38.622 398.565,39.507 398.780,39.754 399.424 C 40.111 400.355,359.800 400.287,360.320 399.356 C 360.582 398.888,361.703 398.604,364.435 398.312 C 367.356 398.000,368.427 397.712,369.255 397.015 C 369.840 396.523,371.379 395.911,372.676 395.656 C 373.972 395.401,375.429 394.915,375.914 394.576 C 376.398 394.236,377.921 393.590,379.297 393.139 C 387.831 390.345,397.666 383.988,398.247 380.891 C 398.412 380.008,398.782 379.425,399.254 379.302 C 400.078 379.086,400.465 266.400,399.642 266.400 C 399.445 266.400,398.410 265.571,397.342 264.558 C 388.121 255.811,374.221 249.967,357.400 247.765 C 354.760 247.419,351.160 246.792,349.400 246.371 C 343.314 244.915,337.722 245.437,335.618 247.656 C 333.768 249.608,333.810 248.756,333.590 288.400 C 333.395 323.602,333.331 326.330,332.658 328.086 C 330.479 333.767,322.264 337.370,310.000 338.022 C 302.346 338.430,300.935 338.599,296.600 339.632 C 293.499 340.371,290.439 340.394,197.904 340.397 L 102.407 340.400 97.704 339.419 C 95.117 338.879,90.300 338.266,87.000 338.057 C 76.033 337.359,68.015 333.934,65.527 328.882 L 64.600 327.000 64.400 289.200 L 64.200 251.400 63.200 249.400 C 61.305 245.610,56.082 244.573,48.200 246.424 " stroke="none" fill="#046ca4" fill-rule="evenodd"></path></g></svg>