<svg id="svg" version="1.1" xmlns="http://www.w3.org/2000/svg" xmlns:xlink="http://www.w3.org/1999/xlink" width="400" height="400" viewBox="0, 0, 400,400"><g id="svgg"><path id="path0" d="M0.000 90.387 C 0.000 190.626,-0.237 181.903,2.414 179.225 C 5.175 176.434,13.932 168.854,16.874 166.707 C 18.703 165.373,24.340 160.201,29.400 155.216 C 35.033 149.665,40.151 145.015,42.600 143.222 C 45.161 141.347,50.270 136.664,56.800 130.208 C 63.318 123.763,68.444 119.065,71.000 117.192 C 73.553 115.322,78.763 110.548,85.400 103.997 C 92.088 97.396,97.228 92.689,99.800 90.809 C 102.366 88.934,107.457 84.274,114.000 77.811 C 120.346 71.542,125.787 66.551,128.400 64.602 C 130.886 62.747,136.273 57.847,141.600 52.594 C 147.057 47.214,152.175 42.566,154.600 40.788 C 157.145 38.922,162.383 34.122,169.000 27.590 C 174.720 21.945,180.840 16.278,182.600 14.998 C 188.430 10.757,197.200 2.008,197.200 0.432 C 197.200 0.124,168.983 0.000,98.600 0.000 L 0.000 0.000 0.000 90.387 M205.200 0.571 C 205.200 0.885,205.605 1.471,206.100 1.874 C 206.595 2.277,208.246 4.045,209.768 5.803 C 213.061 9.605,215.109 11.475,219.400 14.596 C 221.200 15.906,228.111 22.379,235.200 29.397 C 243.509 37.623,249.230 42.940,252.000 45.011 C 254.310 46.737,258.551 50.436,261.426 53.229 C 270.081 61.642,271.889 61.855,276.400 55.000 C 281.050 47.932,282.983 47.437,304.889 47.696 C 326.853 47.956,327.496 48.464,332.162 69.266 L 333.200 73.896 333.213 93.448 C 333.227 114.818,333.396 117.357,335.019 120.674 C 336.442 123.583,342.110 129.316,347.600 133.400 C 350.420 135.498,355.939 140.623,364.400 149.004 C 372.861 157.385,378.308 162.444,380.981 164.405 C 383.170 166.011,386.958 169.232,389.398 171.563 C 395.032 176.943,398.803 180.316,399.475 180.573 C 399.907 180.739,400.000 164.844,400.000 90.387 L 400.000 0.000 302.600 0.000 C 218.490 0.000,205.200 0.078,205.200 0.571 M0.000 294.200 L 0.000 400.000 48.587 400.000 C 91.050 400.000,97.147 399.926,96.950 399.415 C 96.694 398.746,96.185 398.572,93.400 398.201 C 92.116 398.029,91.042 397.595,90.400 396.988 C 89.850 396.468,88.770 395.779,88.000 395.456 C 87.230 395.134,86.150 394.381,85.600 393.783 C 85.050 393.186,82.613 391.117,80.185 389.186 C 72.241 382.869,66.462 372.942,64.826 362.800 C 64.543 361.048,64.405 333.822,64.403 279.320 C 64.400 194.174,64.427 195.444,62.569 193.236 C 60.271 190.505,61.565 190.621,30.932 190.400 L 3.264 190.200 2.306 189.300 C -0.207 186.938,0.000 177.501,0.000 294.200 M397.764 189.300 L 396.620 190.200 368.010 190.400 L 339.400 190.600 337.400 191.600 C 335.800 192.400,335.200 193.000,334.400 194.600 L 333.400 196.600 333.196 280.400 C 332.965 374.769,333.320 364.389,330.051 372.541 C 327.273 379.468,318.111 389.749,311.670 393.167 C 311.158 393.438,309.613 394.616,308.237 395.784 C 306.095 397.601,305.422 397.944,303.567 398.170 C 298.993 398.726,298.400 398.871,298.400 399.435 C 298.400 399.919,305.716 400.000,349.200 400.000 L 400.000 400.000 400.000 294.200 C 400.000 205.067,399.914 188.400,399.454 188.400 C 399.154 188.400,398.393 188.805,397.764 189.300 M165.224 250.622 C 156.437 252.528,151.128 259.111,146.524 273.811 L 145.400 277.400 145.291 338.700 L 145.183 400.000 199.991 400.000 L 254.800 400.000 254.794 343.100 C 254.788 287.417,254.770 286.119,253.974 282.400 C 253.527 280.310,252.807 276.663,252.375 274.296 C 249.905 260.774,243.024 251.830,234.000 250.414 C 229.706 249.740,168.436 249.926,165.224 250.622 " stroke="none" fill="#fcfcfc" fill-rule="evenodd"></path><path id="path1" d="M197.200 0.432 C 197.200 2.008,188.430 10.757,182.600 14.998 C 180.840 16.278,174.720 21.945,169.000 27.590 C 162.383 34.122,157.145 38.922,154.600 40.788 C 152.175 42.566,147.057 47.214,141.600 52.594 C 136.273 57.847,130.886 62.747,128.400 64.602 C 125.787 66.551,120.346 71.542,114.000 77.811 C 107.457 84.274,102.366 88.934,99.800 90.809 C 97.228 92.689,92.088 97.396,85.400 103.997 C 78.763 110.548,73.553 115.322,71.000 117.192 C 68.444 119.065,63.318 123.763,56.800 130.208 C 50.270 136.664,45.161 141.347,42.600 143.222 C 40.151 145.015,35.033 149.665,29.400 155.216 C 24.340 160.201,18.703 165.373,16.874 166.707 C 13.932 168.854,5.175 176.434,2.414 179.225 C 1.856 179.788,1.085 180.367,0.700 180.512 C -0.335 180.901,-0.360 188.400,0.674 188.400 C 1.045 188.400,1.779 188.805,2.306 189.300 L 3.264 190.200 30.932 190.400 C 61.565 190.621,60.271 190.505,62.569 193.236 C 64.427 195.444,64.400 194.174,64.403 279.320 C 64.405 333.822,64.543 361.048,64.826 362.800 C 66.462 372.942,72.241 382.869,80.185 389.186 C 82.613 391.117,85.045 393.179,85.589 393.769 C 86.133 394.359,87.303 395.166,88.189 395.563 C 89.075 395.959,90.137 396.664,90.549 397.128 C 91.080 397.726,91.997 398.050,93.702 398.243 C 95.295 398.424,96.321 398.766,96.742 399.258 C 97.348 399.965,98.492 400.000,121.280 400.000 L 145.183 400.000 145.291 338.700 L 145.400 277.400 146.524 273.811 C 151.168 258.984,156.440 252.505,165.407 250.606 C 168.827 249.881,229.523 249.712,234.000 250.414 C 243.024 251.830,249.905 260.774,252.375 274.296 C 252.807 276.663,253.527 280.310,253.974 282.400 C 254.770 286.119,254.788 287.417,254.794 343.100 L 254.800 400.000 276.600 400.000 C 295.108 400.000,298.400 399.915,298.400 399.435 C 298.400 398.871,298.993 398.726,303.567 398.170 C 305.422 397.944,306.095 397.601,308.237 395.784 C 309.613 394.616,311.158 393.438,311.670 393.167 C 318.111 389.749,327.273 379.468,330.051 372.541 C 333.320 364.389,332.965 374.769,333.196 280.400 L 333.400 196.600 334.400 194.600 C 335.200 193.000,335.800 192.400,337.400 191.600 L 339.400 190.600 368.010 190.400 L 396.620 190.200 397.764 189.300 C 398.393 188.805,399.154 188.400,399.454 188.400 C 400.227 188.400,400.247 180.870,399.475 180.573 C 398.803 180.316,395.032 176.943,389.398 171.563 C 386.958 169.232,383.170 166.011,380.981 164.405 C 378.308 162.444,372.861 157.385,364.400 149.004 C 355.939 140.623,350.420 135.498,347.600 133.400 C 342.110 129.316,336.442 123.583,335.019 120.674 C 333.396 117.357,333.227 114.818,333.213 93.448 L 333.200 73.896 332.162 69.266 C 327.496 48.464,326.853 47.956,304.889 47.696 C 282.983 47.437,281.050 47.932,276.400 55.000 C 271.889 61.855,270.081 61.642,261.426 53.229 C 258.551 50.436,254.310 46.737,252.000 45.011 C 249.230 42.940,243.509 37.623,235.200 29.397 C 228.111 22.379,221.200 15.906,219.400 14.596 C 215.109 11.475,213.061 9.605,209.768 5.803 C 208.246 4.045,206.595 2.277,206.100 1.874 C 205.605 1.471,205.200 0.885,205.200 0.571 C 205.200 0.114,204.398 0.000,201.200 0.000 C 198.601 0.000,197.200 0.151,197.200 0.432 " stroke="none" fill="#046ca4" fill-rule="evenodd"></path></g></svg>