<svg id="svg" version="1.1" xmlns="http://www.w3.org/2000/svg" xmlns:xlink="http://www.w3.org/1999/xlink" width="400" height="400" viewBox="0, 0, 400,400"><g id="svgg"><path id="path0" d="M0.000 23.587 C 0.000 44.117,0.076 47.146,0.585 46.950 C 1.329 46.665,1.477 46.099,1.803 42.289 C 2.004 39.949,2.289 38.908,2.953 38.089 C 3.438 37.490,4.160 35.920,4.558 34.600 C 4.956 33.280,5.689 31.750,6.186 31.200 C 6.684 30.650,7.994 28.850,9.098 27.200 C 15.160 18.137,19.557 13.849,27.959 8.808 C 30.597 7.226,33.750 5.060,34.966 3.996 C 36.852 2.346,37.505 2.019,39.400 1.783 C 40.975 1.586,41.740 1.286,42.025 0.752 C 42.417 0.020,41.858 0.000,21.214 0.000 L 0.000 0.000 0.000 23.587 M76.873 0.683 C 76.956 1.114,77.586 1.486,78.589 1.694 C 79.460 1.875,80.598 2.422,81.116 2.909 C 81.634 3.396,82.763 4.155,83.626 4.597 C 104.669 15.377,116.386 31.643,118.826 53.467 C 120.316 66.787,113.258 83.228,100.639 95.831 C 94.346 102.116,92.879 103.197,87.671 105.394 C 85.944 106.122,82.338 107.733,79.657 108.973 C 63.838 116.294,53.007 115.976,35.581 107.681 C 33.260 106.576,30.221 105.209,28.826 104.642 C 27.432 104.075,25.730 103.184,25.045 102.661 C 21.605 100.036,15.682 94.382,13.479 91.620 C 12.115 89.911,9.681 86.964,8.069 85.071 C 5.239 81.747,5.114 81.512,4.451 78.237 C 4.073 76.371,3.452 74.499,3.070 74.077 C 2.239 73.159,1.600 71.090,1.600 69.317 C 1.600 68.438,1.346 67.892,0.800 67.600 C 0.002 67.173,0.000 67.296,0.000 109.415 C 0.000 149.432,0.037 151.652,0.700 151.524 C 1.239 151.420,1.474 150.791,1.720 148.795 C 1.944 146.981,2.312 145.901,2.946 145.201 C 3.444 144.650,4.166 143.158,4.551 141.885 C 5.688 138.121,10.754 133.537,17.200 130.441 L 20.200 129.000 57.495 128.890 C 99.282 128.767,97.311 128.648,103.481 131.663 C 110.354 135.020,115.114 141.187,117.852 150.281 L 118.912 153.800 119.266 190.600 C 119.863 252.687,119.588 288.042,118.484 290.976 C 114.874 300.576,107.633 308.799,100.800 311.059 C 98.112 311.948,26.512 312.435,21.647 311.598 C 15.225 310.492,5.900 303.519,4.530 298.800 C 4.179 297.590,3.479 296.107,2.975 295.504 C 2.364 294.774,1.972 293.639,1.800 292.104 C 1.467 289.127,1.349 288.800,0.613 288.800 C 0.065 288.800,0.000 294.738,0.000 344.400 L 0.000 400.000 73.614 400.000 C 146.065 400.000,147.222 399.988,146.817 399.233 C 146.591 398.810,145.847 398.342,145.163 398.192 C 143.788 397.890,143.909 397.997,139.400 393.049 C 133.707 386.802,131.007 381.996,128.826 374.226 C 126.274 365.139,126.434 370.823,126.312 284.800 L 126.200 206.200 127.926 200.200 C 131.121 189.095,133.181 185.223,139.000 179.389 C 147.374 170.992,142.796 171.558,201.303 171.691 L 249.400 171.800 251.693 172.676 C 263.351 177.130,268.749 183.870,273.431 199.817 C 274.378 203.042,274.527 228.018,274.089 310.000 L 273.756 372.200 272.657 375.372 C 269.378 384.833,260.823 397.535,257.250 398.250 C 256.547 398.391,255.792 398.842,255.572 399.253 C 255.182 399.981,257.003 400.000,327.586 400.000 L 400.000 400.000 400.000 346.771 C 400.000 297.051,399.956 293.550,399.325 293.671 C 398.947 293.744,398.498 294.392,398.303 295.143 C 398.112 295.881,396.795 297.815,395.378 299.441 C 393.960 301.066,392.800 302.545,392.800 302.726 C 392.800 303.735,387.324 308.491,384.679 309.780 C 380.188 311.969,379.691 311.994,340.555 311.997 C 302.190 312.000,301.808 311.982,297.748 309.997 C 289.865 306.141,287.393 303.078,283.672 292.556 L 281.000 285.000 281.069 221.574 C 281.145 151.639,280.959 156.419,283.951 147.519 C 287.033 138.347,288.108 136.784,294.076 132.792 C 300.522 128.480,297.200 128.759,340.611 128.888 L 378.200 129.000 380.935 130.095 C 387.504 132.726,390.210 134.806,395.454 141.255 C 397.321 143.551,397.974 144.695,398.183 146.036 C 398.597 148.685,398.799 149.200,399.427 149.200 C 399.921 149.200,400.000 143.522,400.000 108.213 C 400.000 72.418,399.926 67.254,399.415 67.450 C 398.752 67.704,398.574 68.214,398.209 70.898 C 398.062 71.984,397.558 73.268,397.031 73.898 C 396.524 74.504,395.974 75.450,395.808 76.000 C 395.643 76.550,395.094 77.551,394.590 78.225 C 394.086 78.899,393.380 80.152,393.022 81.009 C 390.137 87.913,377.722 101.054,371.159 104.151 C 351.225 113.556,345.796 115.126,336.752 114.098 C 332.091 113.569,323.284 110.786,316.800 107.793 C 314.270 106.625,310.850 105.055,309.200 104.304 C 305.622 102.675,298.126 96.361,295.013 92.356 C 293.920 90.950,291.987 88.582,290.717 87.094 C 287.862 83.748,286.741 81.572,285.392 76.757 C 284.813 74.691,283.828 71.470,283.203 69.600 C 280.088 60.285,280.631 50.743,285.056 37.000 C 288.534 26.200,298.301 14.982,310.400 7.891 C 312.490 6.666,315.043 4.854,316.074 3.864 C 317.711 2.291,318.240 2.028,320.274 1.778 C 322.394 1.517,323.177 1.121,323.194 0.300 C 323.197 0.135,267.747 0.000,199.971 0.000 C 84.026 0.000,76.749 0.040,76.873 0.683 M357.600 0.351 C 357.600 0.916,358.506 1.487,359.859 1.776 C 360.551 1.924,361.451 2.416,361.859 2.869 C 362.266 3.323,363.500 4.124,364.600 4.650 C 377.218 10.683,388.183 20.855,392.964 30.960 C 393.513 32.121,394.229 33.292,394.555 33.563 C 394.882 33.834,395.262 34.574,395.402 35.207 C 395.541 35.840,396.169 37.006,396.797 37.797 C 397.698 38.930,397.994 39.802,398.194 41.917 C 398.571 45.887,398.802 46.800,399.432 46.800 C 399.916 46.800,400.000 43.352,400.000 23.400 L 400.000 0.000 378.800 0.000 C 366.905 0.000,357.600 0.154,357.600 0.351 M214.989 11.581 C 234.197 16.403,247.352 24.180,256.996 36.414 C 266.268 48.177,268.446 52.531,272.042 66.496 L 273.716 73.000 273.733 80.800 C 273.759 93.668,269.915 107.210,263.539 116.707 C 250.831 135.634,238.356 144.435,216.000 150.246 L 208.600 152.169 200.200 152.185 L 191.800 152.200 185.800 150.691 C 165.521 145.590,152.510 137.781,142.331 124.600 C 133.599 113.292,131.811 109.679,128.292 96.234 L 126.608 89.800 126.608 81.000 L 126.608 72.200 128.306 65.709 C 130.633 56.818,131.141 55.565,135.547 47.872 C 146.593 28.583,161.419 17.612,184.200 11.866 C 196.151 8.852,203.835 8.781,214.989 11.581 " stroke="none" fill="#fcfcfc" fill-rule="evenodd"></path><path id="path1" d="M42.025 0.752 C 41.740 1.286,40.975 1.586,39.400 1.783 C 37.505 2.019,36.852 2.346,34.966 3.996 C 33.750 5.060,30.597 7.226,27.959 8.808 C 19.557 13.849,15.160 18.137,9.098 27.200 C 7.994 28.850,6.684 30.650,6.186 31.200 C 5.689 31.750,4.959 33.280,4.566 34.600 C 4.172 35.920,3.496 37.401,3.063 37.892 C 2.242 38.822,1.665 41.394,1.624 44.304 C 1.607 45.492,1.358 46.215,0.800 46.693 C -0.443 47.757,-0.443 66.935,0.800 67.600 C 1.346 67.892,1.600 68.438,1.600 69.317 C 1.600 71.090,2.239 73.159,3.070 74.077 C 3.452 74.499,4.073 76.371,4.451 78.237 C 5.114 81.512,5.239 81.747,8.069 85.071 C 9.681 86.964,12.115 89.911,13.479 91.620 C 15.682 94.382,21.605 100.036,25.045 102.661 C 25.730 103.184,27.432 104.075,28.826 104.642 C 30.221 105.209,33.260 106.576,35.581 107.681 C 53.007 115.976,63.838 116.294,79.657 108.973 C 82.338 107.733,85.944 106.122,87.671 105.394 C 92.879 103.197,94.346 102.116,100.639 95.831 C 113.258 83.228,120.316 66.787,118.826 53.467 C 116.386 31.643,104.669 15.377,83.626 4.597 C 82.763 4.155,81.621 3.383,81.086 2.881 C 80.552 2.379,79.435 1.858,78.604 1.723 C 77.603 1.561,77.028 1.229,76.900 0.739 C 76.596 -0.423,42.647 -0.409,42.025 0.752 M323.016 0.750 C 322.833 1.328,322.228 1.561,320.374 1.771 C 318.231 2.014,317.763 2.241,316.084 3.854 C 315.048 4.849,312.490 6.666,310.400 7.891 C 298.301 14.982,288.534 26.200,285.056 37.000 C 280.631 50.743,280.088 60.285,283.203 69.600 C 283.828 71.470,284.813 74.691,285.392 76.757 C 286.741 81.572,287.862 83.748,290.717 87.094 C 291.987 88.582,293.920 90.950,295.013 92.356 C 298.126 96.361,305.622 102.675,309.200 104.304 C 310.850 105.055,314.270 106.625,316.800 107.793 C 323.284 110.786,332.091 113.569,336.752 114.098 C 345.796 115.126,351.225 113.556,371.159 104.151 C 377.722 101.054,390.137 87.913,393.022 81.009 C 393.380 80.152,394.086 78.899,394.590 78.225 C 395.094 77.551,395.639 76.550,395.800 76.000 C 395.960 75.450,396.436 74.624,396.856 74.164 C 397.715 73.223,398.400 71.155,398.400 69.499 C 398.400 68.887,398.758 68.086,399.200 67.707 C 400.251 66.808,400.472 46.800,399.432 46.800 C 398.802 46.800,398.571 45.887,398.194 41.917 C 397.994 39.802,397.698 38.930,396.797 37.797 C 396.169 37.006,395.541 35.840,395.402 35.207 C 395.262 34.574,394.882 33.834,394.555 33.563 C 394.229 33.292,393.513 32.121,392.964 30.960 C 388.183 20.855,377.218 10.683,364.600 4.650 C 363.500 4.124,362.260 3.316,361.845 2.855 C 361.430 2.393,360.472 1.900,359.717 1.758 C 358.962 1.616,358.134 1.163,357.876 0.750 C 357.147 -0.418,323.387 -0.419,323.016 0.750 M192.600 9.864 C 160.182 14.893,136.137 35.779,128.306 65.709 L 126.608 72.200 126.608 81.000 L 126.608 89.800 128.292 96.234 C 131.811 109.679,133.599 113.292,142.331 124.600 C 152.510 137.781,165.521 145.590,185.800 150.691 L 191.800 152.200 200.200 152.185 L 208.600 152.169 216.000 150.246 C 238.356 144.435,250.831 135.634,263.539 116.707 C 269.915 107.210,273.759 93.668,273.733 80.800 L 273.716 73.000 272.042 66.496 C 267.337 48.226,259.237 35.668,245.424 25.231 C 231.383 14.621,207.229 7.594,192.600 9.864 M20.302 129.234 C 14.384 130.629,5.890 137.451,4.551 141.885 C 4.166 143.158,3.436 144.659,2.928 145.220 C 2.261 145.956,1.931 146.942,1.740 148.773 C 1.531 150.766,1.317 151.349,0.737 151.500 C -0.472 151.817,-0.410 288.600,0.800 288.916 C 1.396 289.072,1.602 289.466,1.610 290.463 C 1.625 292.572,2.263 294.801,3.121 295.739 C 3.555 296.212,4.193 297.590,4.539 298.800 C 5.887 303.511,15.218 310.491,21.647 311.598 C 26.512 312.435,98.112 311.948,100.800 311.059 C 107.633 308.799,114.874 300.576,118.484 290.976 C 119.588 288.042,119.863 252.687,119.266 190.600 L 118.912 153.800 117.852 150.281 C 114.452 138.990,107.394 131.733,97.557 129.414 C 94.635 128.726,23.165 128.559,20.302 129.234 M300.108 129.628 C 291.897 132.250,287.415 137.214,283.951 147.519 C 280.959 156.419,281.145 151.639,281.069 221.574 L 281.000 285.000 283.672 292.556 C 287.393 303.078,289.865 306.141,297.748 309.997 C 301.808 311.982,302.190 312.000,340.555 311.997 C 379.691 311.994,380.188 311.969,384.679 309.780 C 387.324 308.491,392.800 303.735,392.800 302.726 C 392.800 302.545,393.974 301.050,395.409 299.405 C 396.934 297.656,398.122 295.891,398.269 295.154 C 398.419 294.404,398.821 293.815,399.261 293.700 C 400.273 293.435,400.439 149.200,399.427 149.200 C 398.799 149.200,398.597 148.685,398.183 146.036 C 397.974 144.695,397.321 143.551,395.454 141.255 C 390.210 134.806,387.504 132.726,380.935 130.095 L 378.200 129.000 340.400 128.916 C 303.650 128.835,302.531 128.855,300.108 129.628 M150.254 172.230 C 140.248 174.672,132.467 184.419,127.926 200.200 L 126.200 206.200 126.312 284.800 C 126.434 370.823,126.274 365.139,128.826 374.226 C 131.007 381.996,133.707 386.802,139.400 393.049 C 143.909 397.997,143.788 397.890,145.163 398.192 C 145.847 398.342,146.591 398.810,146.817 399.233 C 147.453 400.421,254.936 400.441,255.572 399.253 C 255.792 398.842,256.547 398.391,257.250 398.250 C 260.823 397.535,269.378 384.833,272.657 375.372 L 273.756 372.200 274.089 310.000 C 274.527 228.018,274.378 203.042,273.431 199.817 C 268.749 183.870,263.351 177.130,251.693 172.676 L 249.400 171.800 201.000 171.729 C 160.188 171.668,152.232 171.747,150.254 172.230 " stroke="none" fill="#046ca4" fill-rule="evenodd"></path></g></svg>